<?xml version="1.0" encoding="UTF-8"?>
<svg id="Layer_1" data-name="Layer 1" xmlns="http://www.w3.org/2000/svg" xmlns:xlink="http://www.w3.org/1999/xlink" viewBox="0 0 32 32">
  <defs>
    <style>
      .cls-1 {
        fill: #ff7a00;
      }

      .cls-2 {
        fill: #0a3794;
      }

      .cls-3 {
        fill: none;
      }

      .cls-4 {
        clip-path: url(#clippath-1);
      }

      .cls-5 {
        fill: url(#linear-gradient);
      }

      .cls-6 {
        clip-path: url(#clippath);
      }
    </style>
    <clipPath id="clippath">
      <path class="cls-3" d="M225.47-274.89c-22.15-12.24-43.55-24.05-64.94-35.87-16.75-9.26-33.55-18.43-50.24-27.8-18.75-10.52-27.91-25.64-27.82-48.15.57-137.25.38-274.51.18-411.76-.03-19.87,8.38-33.68,25.65-43.05,86.08-46.68,172.07-93.52,258.08-140.33,28.68-15.61,57.65-30.72,85.85-47.14,22.75-13.25,43.76-12.41,66.77.15,113.6,62.03,227.55,123.42,341.59,184.64,20.79,11.16,30.65,26.77,30.52,50.8-.56,104.77-.21,209.55-.22,314.33,0,18.08-6.36,24.38-24.34,24.37-15.81-.01-31.63-.05-47.44-.09-.54,0-1.07-.24-2.49-.57v-281.67c-4.52,1.77-7.82,2.65-10.72,4.25-51.3,28.25-102.59,56.51-153.75,85.01-5.77,3.22-10.11,4.01-14.4-1.83-23.36-31.75-53.76-55.25-88.02-73.92-76.36-41.63-152.92-82.88-229.32-124.44-5.5-2.99-10.3-3.4-15.78-.4-30.57,16.75-61.2,33.38-93.45,50.94,12.91,7.11,24.32,13.45,35.77,19.71,24.45,13.37,48.93,26.69,73.38,40.07,14.67,8.03,14.98,15.12,2.54,26.08-14.53,12.79-28.32,26.43-43.11,40.33-39.69-21.68-81.27-44.39-122.75-67.04,0,8.27,0,15.76,0,23.25,0,94.89,0,189.78.02,284.67,0,3.67.21,7.35.06,11.01-.41,9.39,3.52,14.98,12.2,19.67,57.95,31.28,115.57,63.17,173.23,94.98,17.61,9.71,18.29,26.82,1.82,38.23-22.23,15.39-44.46,30.76-66.62,46.24-28.64,20.01-29.24,51.83-.5,71.9,39.22,27.38,82.31,31.04,125.17,11.99,31.19-13.87,60.44-32.39,89.7-50.24,71.43-43.57,142.36-87.95,213.48-132.02,10.3-6.38,20.53-12.88,30.8-19.3,7.67-4.79,8.79-8.7,2.89-15.53-8.83-10.23-18.37-19.86-27.56-29.78-1.91-2.06-3.88-4.12-5.39-6.46-6.76-10.52-1.1-21.27,11.52-21.95,3.38-.18,6.78-.04,10.17-.04,44.9,0,89.81,0,134.71,0,12.71,0,17.49,6.52,14.97,18.98-5.62,27.81-10.76,55.71-16.23,83.55-3.85,19.6-7.5,39.26-12.2,58.66-1.07,4.41-5.45,9.59-9.55,11.15-2.69,1.02-8.44-3.05-11.38-6.2-10.57-11.31-20.73-23.04-30.64-34.94-4.86-5.84-9.33-6.59-15.82-2.5-34.55,21.74-69.29,43.2-103.96,64.75-61.72,38.35-123.72,76.27-185.04,115.27-23.85,15.17-47.89,29.58-75.12,37.36-62.85,17.95-124.01,15.95-179.83-21.59-44.27-29.77-65.08-82.93-48.39-135.68,6.5-20.53,21.21-35.63,35.98-52.05ZM391.73-898.32c10.16,5.6,18.75,10.37,27.37,15.07,81.76,44.54,163.51,89.11,245.42,133.37,2.64,1.43,7.58.74,10.48-.79,28.83-15.23,57.46-30.83,86.11-46.39.59-.32.78-1.36,1.41-2.56-2.52-1.49-4.86-2.98-7.29-4.31-40.5-22.11-80.98-44.24-121.52-66.27-45.73-24.85-91.54-49.53-137.22-74.47-7.42-4.05-14.15-4.24-21.47.05-9.47,5.56-19.24,10.6-28.84,15.93-17.91,9.95-35.8,19.94-54.47,30.35Z"/>
    </clipPath>
    <clipPath id="clippath-1">
      <path class="cls-3" d="M7.43,24.4c-.69-.38-1.36-.75-2.03-1.12-.52-.29-1.05-.58-1.57-.87-.59-.33-.87-.8-.87-1.51.02-4.29.01-8.59,0-12.88,0-.62.26-1.05.8-1.35,2.69-1.46,5.38-2.93,8.07-4.39.9-.49,1.8-.96,2.69-1.47.71-.41,1.37-.39,2.09,0,3.55,1.94,7.12,3.86,10.68,5.78.65.35.96.84.95,1.59-.02,3.28,0,6.55,0,9.83,0,.57-.2.76-.76.76-.49,0-.99,0-1.48,0-.02,0-.03,0-.08-.02v-8.81c-.14.06-.24.08-.34.13-1.6.88-3.21,1.77-4.81,2.66-.18.1-.32.13-.45-.06-.73-.99-1.68-1.73-2.75-2.31-2.39-1.3-4.78-2.59-7.17-3.89-.17-.09-.32-.11-.49-.01-.96.52-1.91,1.04-2.92,1.59.4.22.76.42,1.12.62.76.42,1.53.83,2.3,1.25.46.25.47.47.08.82-.45.4-.89.83-1.35,1.26-1.24-.68-2.54-1.39-3.84-2.1,0,.26,0,.49,0,.73,0,2.97,0,5.94,0,8.9,0,.11,0,.23,0,.34-.01.29.11.47.38.62,1.81.98,3.61,1.98,5.42,2.97.55.3.57.84.06,1.2-.7.48-1.39.96-2.08,1.45-.9.63-.91,1.62-.02,2.25,1.23.86,2.57.97,3.92.37.98-.43,1.89-1.01,2.81-1.57,2.23-1.36,4.45-2.75,6.68-4.13.32-.2.64-.4.96-.6.24-.15.28-.27.09-.49-.28-.32-.57-.62-.86-.93-.06-.06-.12-.13-.17-.2-.21-.33-.03-.67.36-.69.11,0,.21,0,.32,0,1.4,0,2.81,0,4.21,0,.4,0,.55.2.47.59-.18.87-.34,1.74-.51,2.61-.12.61-.23,1.23-.38,1.83-.03.14-.17.3-.3.35-.08.03-.26-.1-.36-.19-.33-.35-.65-.72-.96-1.09-.15-.18-.29-.21-.49-.08-1.08.68-2.17,1.35-3.25,2.03-1.93,1.2-3.87,2.39-5.79,3.61-.75.47-1.5.93-2.35,1.17-1.97.56-3.88.5-5.63-.68-1.38-.93-2.04-2.59-1.51-4.24.2-.64.66-1.11,1.13-1.63ZM12.64,4.9c.32.18.59.32.86.47,2.56,1.39,5.11,2.79,7.68,4.17.08.04.24.02.33-.02.9-.48,1.8-.96,2.69-1.45.02,0,.02-.04.04-.08-.08-.05-.15-.09-.23-.13-1.27-.69-2.53-1.38-3.8-2.07-1.43-.78-2.86-1.55-4.29-2.33-.23-.13-.44-.13-.67,0-.3.17-.6.33-.9.5-.56.31-1.12.62-1.7.95Z"/>
    </clipPath>
    <linearGradient id="linear-gradient" x1="10.59" y1="21.68" x2="26.9" y2="31.1" gradientUnits="userSpaceOnUse">
      <stop offset=".07" stop-color="#064292" stop-opacity="0"/>
      <stop offset=".07" stop-color="#0f448c" stop-opacity=".04"/>
      <stop offset=".08" stop-color="#3b4e72" stop-opacity=".22"/>
      <stop offset=".1" stop-color="#655759" stop-opacity=".39"/>
      <stop offset=".11" stop-color="#8a5f44" stop-opacity=".53"/>
      <stop offset=".13" stop-color="#aa6631" stop-opacity=".66"/>
      <stop offset=".14" stop-color="#c46c22" stop-opacity=".77"/>
      <stop offset=".16" stop-color="#da7115" stop-opacity=".85"/>
      <stop offset=".19" stop-color="#ea750b" stop-opacity=".92"/>
      <stop offset=".22" stop-color="#f67804" stop-opacity=".97"/>
      <stop offset=".26" stop-color="#fd7901" stop-opacity=".99"/>
      <stop offset=".37" stop-color="#ff7a00"/>
    </linearGradient>
  </defs>
  <g class="cls-6">
    <rect class="cls-2" x="-82.57" y="-1235.72" width="1152.28" height="1298.46"/>
  </g>
  <g>
    <g class="cls-4">
      <rect class="cls-2" x="-2.2" y="-5.65" width="36.04" height="40.62"/>
      <polygon class="cls-5" points="10.16 27.11 19.57 22.27 21.83 18.86 29.26 19.44 30.25 25.31 26.71 30.19 11.22 35.07 5.04 31.29 10.16 27.11"/>
    </g>
    <path class="cls-1" d="M15.02,10.41c1.02.02,2.18.46,3.18,1.31.92.78,1.55,1.75,1.86,2.92.38,1.41.17,2.76-.5,4.04-.88,1.68-2.01,3.19-3.21,4.64-.38.46-.77.92-1.17,1.36-.36.4-.46.38-.86,0-1.03-.95-1.83-2.08-2.65-3.2-.71-.96-1.38-1.93-1.9-3.01-1.05-2.18-.66-4.63,1.02-6.38.96-1,2.42-1.7,4.24-1.69ZM17.46,16.06c.03-1.45-1.13-2.78-2.68-2.79-1.47,0-2.73,1.2-2.74,2.77-.01,1.47,1.22,2.78,2.59,2.82,1.69.05,2.86-1.38,2.83-2.8Z"/>
  </g>
</svg>